<?xml version="1.0" standalone="no"?>
<!DOCTYPE svg PUBLIC "-//W3C//DTD SVG 20010904//EN"
 "http://www.w3.org/TR/2001/REC-SVG-20010904/DTD/svg10.dtd">
<svg version="1.0" xmlns="http://www.w3.org/2000/svg"
 width="348.000000pt" height="348.000000pt" viewBox="0 0 348.000000 348.000000"
 preserveAspectRatio="xMidYMid meet">

<g transform="translate(0.000000,348.000000) scale(0.100000,-0.100000)"
fill="#000000" stroke="none">
<path d="M940 2741 c-48 -15 -87 -40 -119 -76 -54 -62 -63 -95 -67 -263 -7
-270 -44 -419 -130 -521 -29 -35 -92 -71 -123 -71 -17 0 -20 -8 -23 -66 -2
-39 1 -68 7 -69 6 -2 22 -6 36 -9 42 -9 92 -48 126 -99 70 -104 100 -242 106
-487 5 -170 13 -202 69 -265 17 -20 50 -46 72 -58 l41 -22 805 0 805 0 41 22
c48 26 101 82 122 132 9 23 16 77 18 146 9 285 26 385 86 496 37 71 86 115
148 133 l45 13 0 64 c0 63 -1 63 -32 70 -98 20 -172 115 -214 277 -15 57 -23
128 -28 272 -6 139 -12 205 -23 231 -22 50 -74 106 -122 132 l-41 22 -790 2
c-434 1 -801 -2 -815 -6z m951 -475 c120 -28 198 -100 219 -202 23 -109 -28
-215 -126 -265 l-52 -26 55 -17 c106 -34 173 -121 180 -236 7 -89 -22 -163
-83 -220 -93 -85 -165 -100 -496 -100 l-238 0 0 540 0 540 243 0 c166 0 260
-4 298 -14z"/>
<path d="M1530 1979 l0 -161 138 4 c159 5 217 23 252 80 28 47 27 124 -3 169
-35 52 -94 68 -254 69 l-133 0 0 -161z"/>
<path d="M1530 1515 l0 -177 163 4 c179 5 211 13 262 67 25 28 30 41 33 99 4
82 -16 120 -80 154 -39 20 -60 23 -210 26 l-168 4 0 -177z"/>
</g>
</svg>
