<?xml version="1.0" standalone="no"?>
<!DOCTYPE svg PUBLIC "-//W3C//DTD SVG 20010904//EN"
 "http://www.w3.org/TR/2001/REC-SVG-20010904/DTD/svg10.dtd">
<svg version="1.0" xmlns="http://www.w3.org/2000/svg"
 width="920.000000pt" height="920.000000pt" viewBox="0 0 920.000000 920.000000"
 preserveAspectRatio="xMidYMid meet">

<g transform="translate(0.000000,920.000000) scale(0.100000,-0.100000)"
fill="#000000" stroke="none">
<path d="M4185 8940 c-693 -107 -1316 -526 -1749 -1179 -292 -441 -504 -1090
-578 -1771 -16 -150 -16 -680 0 -830 71 -657 241 -1229 549 -1844 46 -93 102
-200 125 -239 l40 -69 -26 -47 c-55 -102 -71 -261 -41 -405 50 -237 243 -435
481 -496 156 -40 330 -19 477 57 145 74 280 244 322 403 81 304 -69 629 -350
761 -92 43 -176 61 -297 62 l-108 1 -79 141 c-132 236 -225 446 -317 722 -207
618 -268 1250 -188 1933 66 559 274 1079 612 1529 197 263 425 437 742 567
223 91 491 155 710 169 708 45 1330 -468 1675 -1380 85 -225 167 -559 177
-720 l3 -40 90 -23 c73 -19 426 -128 478 -148 11 -4 11 16 1 123 -71 727 -312
1369 -697 1857 -105 133 -317 343 -442 437 -312 236 -651 382 -1006 434 -149
21 -447 19 -604 -5z"/>
<path d="M3820 6264 c-141 -37 -282 -133 -367 -252 -90 -126 -129 -261 -120
-422 14 -264 182 -485 439 -578 65 -24 87 -27 203 -27 116 0 138 3 203 27 41
15 99 42 129 60 77 45 180 151 227 231 l39 67 237 0 c266 0 467 -17 728 -60
502 -85 1021 -270 1461 -522 161 -92 463 -295 586 -394 530 -427 954 -1107
1056 -1697 59 -340 0 -710 -159 -997 -230 -417 -560 -698 -977 -835 -210 -69
-348 -90 -610 -89 -235 0 -371 14 -585 60 -140 29 -351 92 -467 139 -48 19
-90 35 -95 35 -4 0 -67 -50 -140 -111 -73 -61 -190 -154 -260 -207 -70 -53
-126 -97 -125 -98 10 -8 253 -110 329 -138 217 -80 519 -155 774 -192 174 -24
560 -30 734 -10 337 39 603 118 915 271 319 156 578 356 787 605 236 282 354
552 414 950 23 156 23 490 0 655 -77 551 -305 1059 -677 1505 -563 677 -1248
1147 -2084 1429 -332 111 -798 210 -1120 236 -44 4 -91 9 -105 11 -14 3 -164
8 -333 11 l-308 6 -21 41 c-11 23 -57 77 -102 121 -90 90 -184 143 -296 169
-81 19 -237 19 -310 0z"/>
<path d="M1315 4867 c-292 -233 -455 -385 -616 -572 -378 -441 -598 -916 -675
-1460 -23 -163 -23 -495 0 -665 75 -551 310 -1014 664 -1311 421 -353 966
-547 1612 -575 324 -13 658 34 1140 161 1106 293 2010 943 2633 1896 86 132
206 338 270 465 24 48 29 52 72 58 248 38 462 234 526 484 98 383 -155 754
-556 813 -227 34 -473 -73 -611 -267 -170 -239 -163 -538 19 -779 l44 -59 -40
-75 c-368 -690 -919 -1224 -1731 -1678 -474 -266 -846 -393 -1311 -448 -151
-17 -502 -20 -656 -5 -492 48 -902 243 -1171 554 -198 229 -352 558 -405 865
-25 144 -23 403 5 551 71 380 266 756 573 1107 87 99 252 256 352 333 31 25
57 49 57 53 0 5 -13 55 -29 111 -41 141 -111 427 -111 454 0 29 -7 27 -55 -11z"/>
</g>
</svg>
